<svg width="140" height="30" xmlns="http://www.w3.org/2000/svg"><g fill="none" fill-rule="evenodd"><path d="M10.609 29.96c-2.824 0-7.1-1.09-7.1-7.422v-10.69H0V9.912l3.51-.364V3.66l2.702-.12.565 5.848 6.938-.08v2.541H6.938v10.287c0 3.993 1.896 4.92 4.074 4.92.928 0 2.179-.16 3.227-.443l.565 2.662c-1.533.524-3.106.686-4.195.686zm17.64-10.811c-5.203.04-8.874 1.09-8.874 4.235 0 2.582 1.695 3.994 4.317 3.994 1.573 0 3.226-.484 4.558-1.855v-6.374zm.807 10.327c-.12-.403-.241-.928-.363-1.412-1.895 1.452-3.872 1.896-6.01 1.896-3.953 0-6.777-2.501-6.777-6.494 0-4.922 5.244-6.576 12.344-6.697v-.645c0-3.954-1.775-4.68-4.115-4.68-1.17 0-3.106.364-4.558.848l-.806-2.501c1.774-.686 4.356-1.17 6.09-1.17 2.865 0 6.777.726 6.777 7.019v10.044c0 1.09.121 2.54.283 3.67l-2.865.122zm11.64.484c-2.178 0-5.244-.847-5.244-6.333V.593L38.84.07v23.437c0 3.065 1.29 3.55 2.663 3.55.484 0 .887-.041 1.25-.121l.726 2.662a10.6 10.6 0 0 1-2.783.363zm17.968-.605l-6.898-9.358h-2.138v9.358H46.24V.593L49.628.07v18.475l8.794-9.237h3.993l-8.229 8.47 8.552 11.578h-4.074zm18.507-16.942c-1.09-.484-2.541-.807-3.952-.807-3.832 0-6.536 2.219-6.536 7.664 0 5.486 2.865 7.462 5.89 7.462 1.694 0 3.348-.725 4.599-1.815V12.413zm.766 16.942l-.12-1.331c-1.452 1.129-3.469 1.936-5.567 1.936-5.002 0-9.036-3.348-9.036-10.69 0-7.301 4.074-10.69 9.964-10.69 1.372 0 2.825.283 3.993.727V.593l3.43-.524v29.286h-2.664zm33.556.605c-2.662 0-4.276-.484-5.768-1.049l.404-2.743c1.451.686 3.025 1.09 5.163 1.09 2.541 0 4.921-.848 4.921-3.39 0-.725-.322-1.33-1.25-2.056-1.492-1.09-4.154-1.815-5.97-3.066-1.573-1.09-2.3-2.622-2.3-4.397 0-3.55 2.865-5.728 6.373-5.728 1.937 0 3.227.282 4.681.887l-.323 2.501c-1.09-.444-2.22-.686-3.874-.686-2.218 0-3.469 1.13-3.469 2.865 0 .968.646 1.895 2.462 2.823 2.137 1.049 3.348 1.372 4.96 2.42 1.533 1.05 2.26 2.42 2.26 4.156 0 5.042-4.8 6.373-8.27 6.373zm24.416-.605l-6.898-9.358h-2.138v9.358h-3.389V.593l3.389-.524v18.475l8.793-9.237h3.994l-8.229 8.47 8.552 11.578h-4.074z" fill="#494B49"/><path d="M97.513 18.118c.038-1.714-.723-4.533-3.847-4.533-2.894 0-4.113 2.628-4.303 4.533h8.15zm-8.15 3.276c.113 3.352 2.704 4.8 5.712 4.8 2.172 0 3.696-.344 5.143-.839l.686 3.2c-1.6.685-3.808 1.18-6.475 1.18-6.019 0-9.561-3.694-9.561-9.37 0-5.142 3.123-9.979 9.066-9.979 6.017 0 7.999 4.952 7.999 9.027 0 .876-.077 1.562-.154 1.98H89.363zm-3.93-10.62a4.48 4.48 0 0 1 4.443-3.922h7.843a4.479 4.479 0 0 1 4.443 3.921h1.44c.53 0 1.045.068 1.54.185v-.79a6.722 6.722 0 0 0-6.723-6.723h-9.243a6.722 6.722 0 0 0-6.722 6.722v.791a6.672 6.672 0 0 1 1.54-.185h1.44z" fill="#3A99D0"/></g></svg>