<?xml version="1.0" encoding="utf-8"?>
<!-- Generator: Adobe Illustrator 21.0.2, SVG Export Plug-In . SVG Version: 6.00 Build 0)  -->
<svg version="1.1" id="Layer_1" xmlns="http://www.w3.org/2000/svg" xmlns:xlink="http://www.w3.org/1999/xlink" x="0px" y="0px"
	 viewBox="0 0 50 50" enable-background="new 0 0 50 50" xml:space="preserve">
<g>
	<path d="M19.7,42.9c-0.8,0.8-2.1,0.8-2.8,0L1.4,27.4c-0.8-0.8-0.8-2.1,0-2.8l4-4c0.8-0.8,2.1-0.8,2.8,0l15.4,15.4
		c0.8,0.8,0.8,2.1,0,2.8L19.7,42.9z"/>
</g>
<g>
	<path d="M19.7,42.9c-0.8,0.8-2.1,0.8-2.8,0l-4-4c-0.8-0.8-0.8-2.1,0-2.8L41.8,7.1c0.8-0.8,2.1-0.8,2.8,0l4,4c0.8,0.8,0.8,2.1,0,2.8
		L19.7,42.9z"/>
</g>
</svg>
