<?xml version="1.0" encoding="utf-8"?>
<svg xmlns="http://www.w3.org/2000/svg">
<symbol id="opentalk-logo-dark" viewBox="0 0 724.1 189"><style>.st0{clip-path:url(#SVGID_2_);fill:#504f53}</style><defs><path id="SVGID_1_" d="M-275.8-293.8h1280v800h-1280z"/></defs><clipPath id="SVGID_2_"><use xlink:href="#SVGID_1_" overflow="visible"/></clipPath><path class="st0" d="M57.5 43.9c29.7 0 53.3 21.7 53.3 52.2 0 30.7-23.6 52.2-53.3 52.2-29.5 0-53.1-21.5-53.1-52.2 0-30.5 23.6-52.2 53.1-52.2m0 83.3c15.8 0 28.9-12.5 28.9-31.1C86.5 77.7 73.3 65 57.5 65c-15.6 0-28.8 12.7-28.8 31.1.1 18.6 13.2 31.1 28.8 31.1M128.8 55.4v-6.3c0-3.3 2.7-6 6-6h10.5c3.3 0 6 2.7 6 6V59h.4s8.4-15.8 31.7-15.8c27 0 44.4 21.3 44.4 52.2 0 31.7-19.6 52.2-45.8 52.2-19.8 0-28.6-13.1-28.6-13.1h-.4s.4 3.5.4 8.6V183c0 3.3-2.7 6-6 6h-12.6c-3.3 0-6-2.7-6-6V55.4zm48.7 71.3c13.7 0 25.2-11.1 25.2-30.9 0-19-10.2-31.3-24.8-31.3-12.9 0-25 9.4-25 31.5-.1 15.4 8.1 30.7 24.6 30.7M368.2 43.2c3.9 0 7 3.1 7 7v9.5c0 2.2-.4 4.3-.4 4.3h.4c4.3-8.4 15.1-20.7 35.2-20.7 22.1 0 34.8 11.5 34.8 37.9v58.2c0 3.3-2.7 6-6 6h-12.8c-3.3 0-6-2.7-6-6V86.2c0-12.1-3.1-20.3-15.6-20.3-13.3 0-23.3 8.4-26.8 20.3-1.4 4.1-2 8.6-2 13.3v39.8c0 3.3-2.7 6-6 6h-12.6c-3.3 0-6-2.7-6-6v-90c0-3.3 2.7-6 6-6l10.8-.1zM292.8 43.2c28.6 0 44.2 20.9 44.2 47.3v3.2c0 3.3-2.7 6-6 6h-56c-4.1 0-7.1 4.1-5.7 7.9 4.4 12.4 15.5 18.9 28.1 18.9 9.8 0 18-4.1 23-7.4 2.9-1.9 6.6-1 8.4 1.9l4.2 7.1c1.6 2.7.9 6.1-1.6 8-6.2 4.5-18.7 11.5-35.8 11.5-33.1 0-53.6-23.9-53.6-52.2.2-30.7 20.9-52.2 50.8-52.2m11.5 39.3c4.2 0 7.2-4.2 5.6-8.1-2.9-7.4-9.5-12.1-17.1-12.1-9.2 0-16.5 4-20.8 11-2.5 4 .4 9.1 5.1 9.1h27.2zM264.8 25.1l39.8-4.2c8.7-1 11.6 3.2 14 8.9 1.2 2.8 4.1 4.4 7.1 4.1l10-1.1c1.9-.2 3.3-1.9 3.1-3.8l-.7-7C336.8 10 326 1.2 313.9 2.5L251.5 9c-11.5 1.2-19.9 11.6-18.7 23.1l.8 8c.2 1.9 1.9 3.3 3.8 3.1l9.3-1c3-.3 5.5-2.5 6.1-5.5 1.3-6 3-10.5 12-11.6M469.9 59.1h-7.8c-1.4 0-2.5-1.1-2.5-2.5v-6c0-1.4 1.1-2.5 2.5-2.5h8c1.4 0 2.5-1.1 2.5-2.5V24.9c0-1.4 1.1-2.5 2.5-2.5h8c1.4 0 2.5 1.1 2.5 2.5v20.6c0 1.4 1.1 2.5 2.5 2.5h19.4c1.4 0 2.5 1.1 2.5 2.5v6c0 1.4-1.1 2.5-2.5 2.5h-19.4c-1.4 0-2.5 1.1-2.5 2.5v46c0 22.9 14.6 25.8 21.9 25.8h1.9c1.4 0 2.5 1.1 2.5 2.5v6.7c0 1.3-1 2.4-2.3 2.5-.9.1-2 .1-3.3.1-11.3 0-33.9-3.7-33.9-36.3V61.7c0-1.4-1.1-2.6-2.5-2.6M580 85h2.9c1.4 0 2.5-1.1 2.5-2.5 0-18.8-10.3-25.2-24.2-25.2-9.8 0-17.9 3.5-22.8 6.2-2.8 1.6-6.3.6-8-2.1-1.8-2.9-.8-6.6 2.1-8.3 5.7-3.2 15.8-7.6 29.7-7.6 23.5 0 36.5 13 36.5 37.4v59.9c0 1.4-1.1 2.5-2.5 2.5h-7.6c-1.4 0-2.5-1.1-2.5-2.5v-8.1c0-4.8.4-8.1.4-8.1h-.5s-8.1 21.1-32.6 21.1c-16.3 0-33.2-9.5-33.2-28.9.1-33.1 42.9-33.8 59.8-33.8m-24.4 51.4c18.6 0 29.9-19.4 29.9-36.3v-1.7c0-1.4-1.1-2.5-2.5-2.5h-3.1c-15.3 0-46 .6-46 22.1-.1 9 7.1 18.4 21.7 18.4M622 2.4h6.6c1.8 0 3.3 1.5 3.3 3.3v112.8c0 12.8 5.8 14.7 10.9 14.7 1.8 0 3.3 1.5 3.3 3.3v5.4c0 1.7-1.3 3.2-3.1 3.3-.6 0-1.2.1-1.8.1-8.1 0-22.5-2.5-22.5-23.9V5.7c0-1.8 1.4-3.3 3.3-3.3M662.8 2.9h5.8c2.1 0 3.7 1.7 3.7 3.7v74.6c0 2.1 1.7 3.7 3.7 3.7 1.1 0 2.2-.5 2.9-1.4L706 49.1c.7-.9 1.8-1.4 2.9-1.4h6.4c3.1 0 4.8 3.6 2.9 6L689 90.2v.4l33.3 48.9c1.7 2.5-.1 5.8-3.1 5.8h-6.7c-1.2 0-2.4-.6-3.1-1.7L679.1 98c-.7-1-1.8-1.7-3.1-1.7-2.1 0-3.7 1.7-3.7 3.7v41.5c0 2.1-1.7 3.7-3.7 3.7h-5.8c-2.1 0-3.7-1.7-3.7-3.7V6.6c0-2 1.6-3.7 3.7-3.7"/>
</symbol>
<symbol id="opentalk-logo-white" viewBox="0 0 734.3 224.4"><style/><path d="M60.4 49.9c29.7 0 53.3 21.7 53.3 52.2 0 30.7-23.6 52.2-53.3 52.2-29.5 0-53.1-21.5-53.1-52.2 0-30.5 23.6-52.2 53.1-52.2m0 83.3c15.8 0 28.9-12.5 28.9-31.1C89.4 83.7 76.2 71 60.4 71c-15.6 0-28.8 12.7-28.8 31.1.1 18.6 13.2 31.1 28.8 31.1m71.3-71.7v-6.3c0-3.3 2.7-6 6-6h10.5c3.3 0 6 2.7 6 6V65h.4s8.4-15.8 31.7-15.8c27 0 44.4 21.3 44.4 52.2 0 31.7-19.6 52.2-45.8 52.2-19.8 0-28.6-13.1-28.6-13.1h-.4s.4 3.5.4 8.6V189c0 3.3-2.7 6-6 6h-12.6c-3.3 0-6-2.7-6-6V61.5zm48.7 71.2c13.7 0 25.2-11.1 25.2-30.9 0-19-10.2-31.3-24.8-31.3-12.9 0-25 9.4-25 31.5 0 15.5 8.2 30.7 24.6 30.7m179.8-83.5c-3.3 0-6 2.7-6 6v90c0 3.3 2.7 6 6 6h12.6c3.3 0 6-2.7 6-6v-39.8c0-4.7.6-9.2 2-13.3 3.5-11.9 13.5-20.3 26.8-20.3 12.5 0 15.6 8.2 15.6 20.3v53.1c0 3.3 2.7 6 6 6H442c3.3 0 6-2.7 6-6V87.1c0-26.4-12.7-37.9-34.8-37.9-20.1 0-30.9 12.3-35.2 20.7h-.4s.4-2.2.4-4.3v-9.5c0-3.9-3.1-7-7-7l-10.8.1zm-64.5 0c28.6 0 44.2 20.9 44.2 47.3v3.2c0 3.3-2.7 6-6 6h-56c-4.1 0-7.1 4.1-5.7 7.9 4.4 12.4 15.5 18.9 28.1 18.9 9.8 0 18-4.1 23-7.4 2.9-1.9 6.6-1 8.4 1.9l4.2 7.1c1.6 2.7.9 6.1-1.6 8-6.2 4.5-18.7 11.5-35.8 11.5-33.1 0-53.6-23.9-53.6-52.2.2-30.7 20.9-52.2 50.8-52.2m11.6 39.3c4.2 0 7.2-4.2 5.6-8.1-2.9-7.4-9.5-12.1-17.1-12.1-9.2 0-16.5 4-20.8 11-2.5 4 .4 9.1 5.1 9.1h27.2zm-39.6-57.3l39.8-4.2c8.7-1 11.6 3.2 14 8.9 1.2 2.8 4.1 4.4 7.1 4.1l10-1.1c1.9-.2 3.3-1.9 3.1-3.8l-.7-7c-1.3-12-12.1-20.8-24.2-19.5L254.4 15c-11.5 1.2-19.9 11.6-18.7 23.1l.8 8c.2 1.9 1.9 3.3 3.8 3.1l9.3-1c3-.3 5.5-2.5 6.1-5.5 1.3-6 3-10.5 12-11.5m205.1 34c1.4 0 2.5 1.1 2.5 2.5V115c0 32.6 22.7 36.3 33.9 36.3 1.3 0 2.4-.1 3.3-.1 1.3-.1 2.3-1.2 2.3-2.5V142c0-1.4-1.1-2.5-2.5-2.5h-1.9c-7.4 0-21.9-2.9-21.9-25.8v-46c0-1.4 1.1-2.5 2.5-2.5h19.4c1.4 0 2.5-1.1 2.5-2.5v-6c0-1.4-1.1-2.5-2.5-2.5H491c-1.4 0-2.5-1.1-2.5-2.5V30.9c0-1.4-1.1-2.5-2.5-2.5h-8c-1.4 0-2.5 1.1-2.5 2.5v20.6c0 1.4-1.1 2.5-2.5 2.5h-8c-1.4 0-2.5 1.1-2.5 2.5v6c0 1.4 1.1 2.5 2.5 2.5h7.8m110.1 26h2.9c1.4 0 2.5-1.1 2.5-2.5 0-18.8-10.3-25.2-24.2-25.2-9.8 0-17.9 3.5-22.8 6.2-2.8 1.6-6.3.6-8-2.1-1.8-2.9-.8-6.6 2.1-8.3 5.7-3.2 15.8-7.6 29.7-7.6 23.5 0 36.5 13 36.5 37.4v59.9c0 1.4-1.1 2.5-2.5 2.5h-7.6c-1.4 0-2.5-1.1-2.5-2.5v-8.1c0-4.8.4-8.1.4-8.1h-.4s-8.1 21.1-32.6 21.1c-16.3 0-33.2-9.5-33.2-28.9 0-33.1 42.9-33.8 59.7-33.8m-24.4 51.4c18.6 0 29.9-19.4 29.9-36.3v-1.7c0-1.4-1.1-2.5-2.5-2.5h-3.1c-15.3 0-46 .6-46 22.1 0 9.1 7.1 18.4 21.7 18.4m66.4-134c-1.8 0-3.3 1.5-3.3 3.3v115.7c0 21.3 14.4 23.9 22.5 23.9.6 0 1.2 0 1.8-.1 1.7-.1 3.1-1.5 3.1-3.3v-5.4c0-1.8-1.5-3.3-3.3-3.3-5 0-10.9-1.9-10.9-14.7V11.7c0-1.8-1.5-3.3-3.3-3.3h-6.6m40.8.5c-2.1 0-3.7 1.7-3.7 3.7v134.9c0 2.1 1.7 3.7 3.7 3.7h5.8c2.1 0 3.7-1.7 3.7-3.7V106c0-2.1 1.7-3.7 3.7-3.7 1.2 0 2.4.6 3.1 1.7l30.4 45.6c.7 1 1.8 1.7 3.1 1.7h6.7c3 0 4.8-3.3 3.1-5.8L692 96.6v-.4l29.1-36.5c1.9-2.4.2-6-2.9-6h-6.4c-1.1 0-2.2.5-2.9 1.4l-27.1 34.4c-.7.9-1.8 1.4-2.9 1.4-2.1 0-3.7-1.7-3.7-3.7V12.6c0-2.1-1.7-3.7-3.7-3.7h-5.8" fill="#fff"/>
</symbol>
<symbol id="opentalk-logo" viewBox="0 0 724.1 189"><style>.st0,.st1{clip-path:url(#SVGID_2_);fill:#504f53}.st1{fill:#509cd5}</style><defs><path id="SVGID_1_" d="M-275.8-293.8h1280v800h-1280z"/></defs><clipPath id="SVGID_2_"><use xlink:href="#SVGID_1_" overflow="visible"/></clipPath><path class="st0" d="M57.5 43.9c29.7 0 53.3 21.7 53.3 52.2 0 30.7-23.6 52.2-53.3 52.2-29.5 0-53.1-21.5-53.1-52.2 0-30.5 23.6-52.2 53.1-52.2m0 83.3c15.8 0 28.9-12.5 28.9-31.1C86.5 77.7 73.3 65 57.5 65c-15.6 0-28.8 12.7-28.8 31.1.1 18.6 13.2 31.1 28.8 31.1M128.8 55.4v-6.3c0-3.3 2.7-6 6-6h10.5c3.3 0 6 2.7 6 6V59h.4s8.4-15.8 31.7-15.8c27 0 44.4 21.3 44.4 52.2 0 31.7-19.6 52.2-45.8 52.2-19.8 0-28.6-13.1-28.6-13.1h-.4s.4 3.5.4 8.6V183c0 3.3-2.7 6-6 6h-12.6c-3.3 0-6-2.7-6-6V55.4zm48.7 71.3c13.7 0 25.2-11.1 25.2-30.9 0-19-10.2-31.3-24.8-31.3-12.9 0-25 9.4-25 31.5-.1 15.4 8.1 30.7 24.6 30.7M368.2 43.2c3.9 0 7 3.1 7 7v9.5c0 2.2-.4 4.3-.4 4.3h.4c4.3-8.4 15.1-20.7 35.2-20.7 22.1 0 34.8 11.5 34.8 37.9v58.2c0 3.3-2.7 6-6 6h-12.8c-3.3 0-6-2.7-6-6V86.2c0-12.1-3.1-20.3-15.6-20.3-13.3 0-23.3 8.4-26.8 20.3-1.4 4.1-2 8.6-2 13.3v39.8c0 3.3-2.7 6-6 6h-12.6c-3.3 0-6-2.7-6-6v-90c0-3.3 2.7-6 6-6l10.8-.1z"/><path class="st1" d="M292.8 43.2c28.6 0 44.2 20.9 44.2 47.3v3.2c0 3.3-2.7 6-6 6h-56c-4.1 0-7.1 4.1-5.7 7.9 4.4 12.4 15.5 18.9 28.1 18.9 9.8 0 18-4.1 23-7.4 2.9-1.9 6.6-1 8.4 1.9l4.2 7.1c1.6 2.7.9 6.1-1.6 8-6.2 4.5-18.7 11.5-35.8 11.5-33.1 0-53.6-23.9-53.6-52.2.2-30.7 20.9-52.2 50.8-52.2m11.5 39.3c4.2 0 7.2-4.2 5.6-8.1-2.9-7.4-9.5-12.1-17.1-12.1-9.2 0-16.5 4-20.8 11-2.5 4 .4 9.1 5.1 9.1h27.2zM264.8 25.1l39.8-4.2c8.7-1 11.6 3.2 14 8.9 1.2 2.8 4.1 4.4 7.1 4.1l10-1.1c1.9-.2 3.3-1.9 3.1-3.8l-.7-7C336.8 10 326 1.2 313.9 2.5L251.5 9c-11.5 1.2-19.9 11.6-18.7 23.1l.8 8c.2 1.9 1.9 3.3 3.8 3.1l9.3-1c3-.3 5.5-2.5 6.1-5.5 1.3-6 3-10.5 12-11.6"/><path class="st0" d="M469.9 59.1h-7.8c-1.4 0-2.5-1.1-2.5-2.5v-6c0-1.4 1.1-2.5 2.5-2.5h8c1.4 0 2.5-1.1 2.5-2.5V24.9c0-1.4 1.1-2.5 2.5-2.5h8c1.4 0 2.5 1.1 2.5 2.5v20.6c0 1.4 1.1 2.5 2.5 2.5h19.4c1.4 0 2.5 1.1 2.5 2.5v6c0 1.4-1.1 2.5-2.5 2.5h-19.4c-1.4 0-2.5 1.1-2.5 2.5v46c0 22.9 14.6 25.8 21.9 25.8h1.9c1.4 0 2.5 1.1 2.5 2.5v6.7c0 1.3-1 2.4-2.3 2.5-.9.1-2 .1-3.3.1-11.3 0-33.9-3.7-33.9-36.3V61.7c0-1.4-1.1-2.6-2.5-2.6M580 85h2.9c1.4 0 2.5-1.1 2.5-2.5 0-18.8-10.3-25.2-24.2-25.2-9.8 0-17.9 3.5-22.8 6.2-2.8 1.6-6.3.6-8-2.1-1.8-2.9-.8-6.6 2.1-8.3 5.7-3.2 15.8-7.6 29.7-7.6 23.5 0 36.5 13 36.5 37.4v59.9c0 1.4-1.1 2.5-2.5 2.5h-7.6c-1.4 0-2.5-1.1-2.5-2.5v-8.1c0-4.8.4-8.1.4-8.1h-.5s-8.1 21.1-32.6 21.1c-16.3 0-33.2-9.5-33.2-28.9.1-33.1 42.9-33.8 59.8-33.8m-24.4 51.4c18.6 0 29.9-19.4 29.9-36.3v-1.7c0-1.4-1.1-2.5-2.5-2.5h-3.1c-15.3 0-46 .6-46 22.1-.1 9 7.1 18.4 21.7 18.4M622 2.4h6.6c1.8 0 3.3 1.5 3.3 3.3v112.8c0 12.8 5.8 14.7 10.9 14.7 1.8 0 3.3 1.5 3.3 3.3v5.4c0 1.7-1.3 3.2-3.1 3.3-.6 0-1.2.1-1.8.1-8.1 0-22.5-2.5-22.5-23.9V5.7c0-1.8 1.4-3.3 3.3-3.3M662.8 2.9h5.8c2.1 0 3.7 1.7 3.7 3.7v74.6c0 2.1 1.7 3.7 3.7 3.7 1.1 0 2.2-.5 2.9-1.4L706 49.1c.7-.9 1.8-1.4 2.9-1.4h6.4c3.1 0 4.8 3.6 2.9 6L689 90.2v.4l33.3 48.9c1.7 2.5-.1 5.8-3.1 5.8h-6.7c-1.2 0-2.4-.6-3.1-1.7L679.1 98c-.7-1-1.8-1.7-3.1-1.7-2.1 0-3.7 1.7-3.7 3.7v41.5c0 2.1-1.7 3.7-3.7 3.7h-5.8c-2.1 0-3.7-1.7-3.7-3.7V6.6c0-2 1.6-3.7 3.7-3.7"/>
</symbol></svg>