<?xml version="1.0" encoding="utf-8"?>
<!-- Generator: Adobe Illustrator 19.1.0, SVG Export Plug-In . SVG Version: 6.00 Build 0)  -->
<svg version="1.1" id="Layer_1" xmlns="http://www.w3.org/2000/svg" xmlns:xlink="http://www.w3.org/1999/xlink" x="0px" y="0px"
	 viewBox="0 0 734.3 224.4" style="enable-background:new 0 0 734.3 224.4;" xml:space="preserve">
<style type="text/css">
	.st0{fill:#509CD5;}
	.st1{clip-path:url(#SVGID_2_);fill:#FFFFFF;}
	.st2{fill:#FFFFFF;}
</style>
<path class="st2" d="M60.4,49.9c29.7,0,53.3,21.7,53.3,52.2c0,30.7-23.6,52.2-53.3,52.2c-29.5,0-53.1-21.5-53.1-52.2
	C7.3,71.6,30.9,49.9,60.4,49.9 M60.4,133.2c15.8,0,28.9-12.5,28.9-31.1C89.4,83.7,76.2,71,60.4,71c-15.6,0-28.8,12.7-28.8,31.1
	C31.7,120.7,44.8,133.2,60.4,133.2 M131.7,61.5v-6.3c0-3.3,2.7-6,6-6h10.5c3.3,0,6,2.7,6,6v6.3V65h0.4c0,0,8.4-15.8,31.7-15.8
	c27,0,44.4,21.3,44.4,52.2c0,31.7-19.6,52.2-45.8,52.2c-19.8,0-28.6-13.1-28.6-13.1h-0.4c0,0,0.4,3.5,0.4,8.6v39.9c0,3.3-2.7,6-6,6
	h-12.6c-3.3,0-6-2.7-6-6V77V61.5z M180.4,132.7c13.7,0,25.2-11.1,25.2-30.9c0-19-10.2-31.3-24.8-31.3c-12.9,0-25,9.4-25,31.5
	C155.8,117.5,164,132.7,180.4,132.7 M360.2,49.2c-3.3,0-6,2.7-6,6v90c0,3.3,2.7,6,6,6h12.6c3.3,0,6-2.7,6-6v-39.8
	c0-4.7,0.6-9.2,2-13.3c3.5-11.9,13.5-20.3,26.8-20.3c12.5,0,15.6,8.2,15.6,20.3v53.1c0,3.3,2.7,6,6,6h12.8c3.3,0,6-2.7,6-6V87.1
	c0-26.4-12.7-37.9-34.8-37.9c-20.1,0-30.9,12.3-35.2,20.7h-0.4c0,0,0.4-2.2,0.4-4.3v-9.5c0-3.9-3.1-7-7-7L360.2,49.2z M295.7,49.2
	c28.6,0,44.2,20.9,44.2,47.3l0,3.2c0,3.3-2.7,6-6,6h-56c-4.1,0-7.1,4.1-5.7,7.9c4.4,12.4,15.5,18.9,28.1,18.9c9.8,0,18-4.1,23-7.4
	c2.9-1.9,6.6-1,8.4,1.9l4.2,7.1c1.6,2.7,0.9,6.1-1.6,8c-6.2,4.5-18.7,11.5-35.8,11.5c-33.1,0-53.6-23.9-53.6-52.2
	C245.1,70.7,265.8,49.2,295.7,49.2 M307.3,88.5c4.2,0,7.2-4.2,5.6-8.1c-2.9-7.4-9.5-12.1-17.1-12.1c-9.2,0-16.5,4-20.8,11
	c-2.5,4,0.4,9.1,5.1,9.1H307.3z M267.7,31.2l39.8-4.2c8.7-1,11.6,3.2,14,8.9c1.2,2.8,4.1,4.4,7.1,4.1l10-1.1
	c1.9-0.2,3.3-1.9,3.1-3.8l-0.7-7c-1.3-12-12.1-20.8-24.2-19.5L254.4,15c-11.5,1.2-19.9,11.6-18.7,23.1l0.8,8
	c0.2,1.9,1.9,3.3,3.8,3.1l9.3-1c3-0.3,5.5-2.5,6.1-5.5C257,36.7,258.7,32.2,267.7,31.2 M472.8,65.2c1.4,0,2.5,1.1,2.5,2.5V115
	c0,32.6,22.7,36.3,33.9,36.3c1.3,0,2.4-0.1,3.3-0.1c1.3-0.1,2.3-1.2,2.3-2.5V142c0-1.4-1.1-2.5-2.5-2.5l-1.9,0
	c-7.4,0-21.9-2.9-21.9-25.8v-46c0-1.4,1.1-2.5,2.5-2.5h19.4c1.4,0,2.5-1.1,2.5-2.5v-6c0-1.4-1.1-2.5-2.5-2.5H491
	c-1.4,0-2.5-1.1-2.5-2.5V30.9c0-1.4-1.1-2.5-2.5-2.5h-8c-1.4,0-2.5,1.1-2.5,2.5v20.6c0,1.4-1.1,2.5-2.5,2.5h-8
	c-1.4,0-2.5,1.1-2.5,2.5v6c0,1.4,1.1,2.5,2.5,2.5H472.8 M582.9,91h2.9c1.4,0,2.5-1.1,2.5-2.5c0-18.8-10.3-25.2-24.2-25.2
	c-9.8,0-17.9,3.5-22.8,6.2c-2.8,1.6-6.3,0.6-8-2.1c-1.8-2.9-0.8-6.6,2.1-8.3c5.7-3.2,15.8-7.6,29.7-7.6c23.5,0,36.5,13,36.5,37.4
	v59.9c0,1.4-1.1,2.5-2.5,2.5h-7.6c-1.4,0-2.5-1.1-2.5-2.5v-8.1c0-4.8,0.4-8.1,0.4-8.1h-0.4c0,0-8.1,21.1-32.6,21.1
	c-16.3,0-33.2-9.5-33.2-28.9C523.2,91.7,566.1,91,582.9,91 M558.5,142.4c18.6,0,29.9-19.4,29.9-36.3v-1.7c0-1.4-1.1-2.5-2.5-2.5
	h-3.1c-15.3,0-46,0.6-46,22.1C536.8,133.1,543.9,142.4,558.5,142.4 M624.9,8.4c-1.8,0-3.3,1.5-3.3,3.3v115.7
	c0,21.3,14.4,23.9,22.5,23.9c0.6,0,1.2,0,1.8-0.1c1.7-0.1,3.1-1.5,3.1-3.3v-5.4c0-1.8-1.5-3.3-3.3-3.3c-5,0-10.9-1.9-10.9-14.7V11.7
	c0-1.8-1.5-3.3-3.3-3.3H624.9 M665.7,8.9c-2.1,0-3.7,1.7-3.7,3.7v134.9c0,2.1,1.7,3.7,3.7,3.7h5.8c2.1,0,3.7-1.7,3.7-3.7v-41.5
	c0-2.1,1.7-3.7,3.7-3.7h0c1.2,0,2.4,0.6,3.1,1.7l30.4,45.6c0.7,1,1.8,1.7,3.1,1.7h6.7c3,0,4.8-3.3,3.1-5.8L692,96.6v-0.4l29.1-36.5
	c1.9-2.4,0.2-6-2.9-6h-6.4c-1.1,0-2.2,0.5-2.9,1.4l-27.1,34.4c-0.7,0.9-1.8,1.4-2.9,1.4c-2.1,0-3.7-1.7-3.7-3.7V12.6
	c0-2.1-1.7-3.7-3.7-3.7H665.7"/>
</svg>
