<?xml version="1.0" encoding="utf-8"?>
<!-- Generator: Adobe Illustrator 19.1.0, SVG Export Plug-In . SVG Version: 6.00 Build 0)  -->
<svg version="1.1" id="Layer_1" xmlns="http://www.w3.org/2000/svg" xmlns:xlink="http://www.w3.org/1999/xlink" x="0px" y="0px"
	 viewBox="0 0 724.1 189" style="enable-background:new 0 0 724.1 189;" xml:space="preserve">
<style type="text/css">
	.st0{clip-path:url(#SVGID_2_);fill:#504F53;}
	.st1{clip-path:url(#SVGID_2_);fill:#509CD5;}
</style>
<g>
	<defs>
		<rect id="SVGID_1_" x="-275.8" y="-293.8" width="1280" height="800"/>
	</defs>
	<clipPath id="SVGID_2_">
		<use xlink:href="#SVGID_1_"  style="overflow:visible;"/>
	</clipPath>
	<path class="st0" d="M57.5,43.9c29.7,0,53.3,21.7,53.3,52.2c0,30.7-23.6,52.2-53.3,52.2c-29.5,0-53.1-21.5-53.1-52.2
		C4.4,65.6,28,43.9,57.5,43.9 M57.5,127.2c15.8,0,28.9-12.5,28.9-31.1C86.5,77.7,73.3,65,57.5,65c-15.6,0-28.8,12.7-28.8,31.1
		C28.8,114.7,41.9,127.2,57.5,127.2"/>
	<path class="st0" d="M128.8,55.4v-6.3c0-3.3,2.7-6,6-6h10.5c3.3,0,6,2.7,6,6v6.3V59h0.4c0,0,8.4-15.8,31.7-15.8
		c27,0,44.4,21.3,44.4,52.2c0,31.7-19.6,52.2-45.8,52.2c-19.8,0-28.6-13.1-28.6-13.1H153c0,0,0.4,3.5,0.4,8.6V183c0,3.3-2.7,6-6,6
		h-12.6c-3.3,0-6-2.7-6-6V70.9V55.4z M177.5,126.7c13.7,0,25.2-11.1,25.2-30.9c0-19-10.2-31.3-24.8-31.3c-12.9,0-25,9.4-25,31.5
		C152.8,111.4,161,126.7,177.5,126.7"/>
	<path class="st0" d="M368.2,43.2c3.9,0,7,3.1,7,7v9.5c0,2.2-0.4,4.3-0.4,4.3h0.4c4.3-8.4,15.1-20.7,35.2-20.7
		c22.1,0,34.8,11.5,34.8,37.9v58.2c0,3.3-2.7,6-6,6h-12.8c-3.3,0-6-2.7-6-6V86.2c0-12.1-3.1-20.3-15.6-20.3
		c-13.3,0-23.3,8.4-26.8,20.3c-1.4,4.1-2,8.6-2,13.3v39.8c0,3.3-2.7,6-6,6h-12.6c-3.3,0-6-2.7-6-6v-90c0-3.3,2.7-6,6-6L368.2,43.2z"
		/>
	<path class="st1" d="M292.8,43.2c28.6,0,44.2,20.9,44.2,47.3l0,3.2c0,3.3-2.7,6-6,6h-56c-4.1,0-7.1,4.1-5.7,7.9
		c4.4,12.4,15.5,18.9,28.1,18.9c9.8,0,18-4.1,23-7.4c2.9-1.9,6.6-1,8.4,1.9l4.2,7.1c1.6,2.7,0.9,6.1-1.6,8
		c-6.2,4.5-18.7,11.5-35.8,11.5c-33.1,0-53.6-23.9-53.6-52.2C242.2,64.7,262.9,43.2,292.8,43.2 M304.3,82.5c4.2,0,7.2-4.2,5.6-8.1
		c-2.9-7.4-9.5-12.1-17.1-12.1c-9.2,0-16.5,4-20.8,11c-2.5,4,0.4,9.1,5.1,9.1H304.3z"/>
	<path class="st1" d="M264.8,25.1l39.8-4.2c8.7-1,11.6,3.2,14,8.9c1.2,2.8,4.1,4.4,7.1,4.1l10-1.1c1.9-0.2,3.3-1.9,3.1-3.8l-0.7-7
		c-1.3-12-12.1-20.8-24.2-19.5L251.5,9c-11.5,1.2-19.9,11.6-18.7,23.1l0.8,8c0.2,1.9,1.9,3.3,3.8,3.1l9.3-1c3-0.3,5.5-2.5,6.1-5.5
		C254.1,30.7,255.8,26.2,264.8,25.1"/>
	<path class="st0" d="M469.9,59.1h-7.8c-1.4,0-2.5-1.1-2.5-2.5v-6c0-1.4,1.1-2.5,2.5-2.5h8c1.4,0,2.5-1.1,2.5-2.5V24.9
		c0-1.4,1.1-2.5,2.5-2.5h8c1.4,0,2.5,1.1,2.5,2.5v20.6c0,1.4,1.1,2.5,2.5,2.5h19.4c1.4,0,2.5,1.1,2.5,2.5v6c0,1.4-1.1,2.5-2.5,2.5
		h-19.4c-1.4,0-2.5,1.1-2.5,2.5v46c0,22.9,14.6,25.8,21.9,25.8l1.9,0c1.4,0,2.5,1.1,2.5,2.5v6.7c0,1.3-1,2.4-2.3,2.5
		c-0.9,0.1-2,0.1-3.3,0.1c-11.3,0-33.9-3.7-33.9-36.3V61.7C472.4,60.3,471.3,59.1,469.9,59.1"/>
	<path class="st0" d="M580,85h2.9c1.4,0,2.5-1.1,2.5-2.5c0-18.8-10.3-25.2-24.2-25.2c-9.8,0-17.9,3.5-22.8,6.2
		c-2.8,1.6-6.3,0.6-8-2.1c-1.8-2.9-0.8-6.6,2.1-8.3c5.7-3.2,15.8-7.6,29.7-7.6c23.5,0,36.5,13,36.5,37.4v59.9c0,1.4-1.1,2.5-2.5,2.5
		h-7.6c-1.4,0-2.5-1.1-2.5-2.5v-8.1c0-4.8,0.4-8.1,0.4-8.1H586c0,0-8.1,21.1-32.6,21.1c-16.3,0-33.2-9.5-33.2-28.9
		C520.3,85.7,563.1,85,580,85 M555.6,136.4c18.6,0,29.9-19.4,29.9-36.3v-1.7c0-1.4-1.1-2.5-2.5-2.5h-3.1c-15.3,0-46,0.6-46,22.1
		C533.8,127,541,136.4,555.6,136.4"/>
	<path class="st0" d="M622,2.4h6.6c1.8,0,3.3,1.5,3.3,3.3v112.8c0,12.8,5.8,14.7,10.9,14.7c1.8,0,3.3,1.5,3.3,3.3v5.4
		c0,1.7-1.3,3.2-3.1,3.3c-0.6,0-1.2,0.1-1.8,0.1c-8.1,0-22.5-2.5-22.5-23.9V5.7C618.7,3.9,620.1,2.4,622,2.4"/>
	<path class="st0" d="M662.8,2.9h5.8c2.1,0,3.7,1.7,3.7,3.7v74.6c0,2.1,1.7,3.7,3.7,3.7c1.1,0,2.2-0.5,2.9-1.4L706,49.1
		c0.7-0.9,1.8-1.4,2.9-1.4h6.4c3.1,0,4.8,3.6,2.9,6L689,90.2v0.4l33.3,48.9c1.7,2.5-0.1,5.8-3.1,5.8h-6.7c-1.2,0-2.4-0.6-3.1-1.7
		L679.1,98c-0.7-1-1.8-1.7-3.1-1.7h0c-2.1,0-3.7,1.7-3.7,3.7v41.5c0,2.1-1.7,3.7-3.7,3.7h-5.8c-2.1,0-3.7-1.7-3.7-3.7V6.6
		C659.1,4.6,660.7,2.9,662.8,2.9"/>
</g>
</svg>
